<svg xmlns="http://www.w3.org/2000/svg" viewBox="0 0 95.41 79.48"><defs><style>.cls-1{fill:none;stroke:#000;stroke-miterlimit:10;stroke-width:2px;}</style></defs><g id="Layer_1" data-name="Layer 1"><path class="cls-1" d="M281,409s36.79,0,55.09-48.77" transform="translate(-257.75 -330.52)"/><path class="cls-1" d="M326,409s-32.35.39-50.2-48.27" transform="translate(-257.75 -330.52)"/></g><g id="Layer_2" data-name="Layer 2"><path class="cls-1" d="M341.86,341.48c3,4.74,4.18,11.09,1.46,15.08-2,2.9-5.71,4.19-7,4.61" transform="translate(-257.75 -330.52)"/><path class="cls-1" d="M342.54,342c-5,2.67-9.31,7.63-9.12,12.42.14,3.46,2.58,6.39,3.46,7.38" transform="translate(-257.75 -330.52)"/><path class="cls-1" d="M319.71,352.77c5.56.76,11.16,4,12.46,8.62.93,3.38-.48,7.07-1,8.33" transform="translate(-257.75 -330.52)"/><path class="cls-1" d="M320.54,352.59c-1.19,5.55-.18,12,3.6,15,2.74,2.13,6.55,2.15,7.87,2.12" transform="translate(-257.75 -330.52)"/><path class="cls-1" d="M352.33,366.94c-3.11,4.68-8.44,8.32-13.19,7.44-3.45-.63-6.15-3.51-7.06-4.54" transform="translate(-257.75 -330.52)"/><path class="cls-1" d="M352.14,367.77c-4.47-3.49-10.75-5.42-15.05-3.3-3.12,1.53-4.8,4.95-5.35,6.15" transform="translate(-257.75 -330.52)"/><path class="cls-1" d="M271.56,341c4.86,2.83,8.8,7.93,8.21,12.73-.43,3.48-3.15,6.35-4.12,7.31" transform="translate(-257.75 -330.52)"/><path class="cls-1" d="M272.41,341.15c-3.23,4.67-4.78,11-2.42,15.21,1.71,3,5.23,4.5,6.46,5" transform="translate(-257.75 -330.52)"/><path class="cls-1" d="M258.41,367.66c4.22-3.72,10.31-5.85,14.68-3.78,3.16,1.51,5,5,5.63,6.22" transform="translate(-257.75 -330.52)"/><path class="cls-1" d="M258.82,366.9c3.41,4.54,9,8,13.67,7.09,3.41-.67,5.92-3.54,6.77-4.56" transform="translate(-257.75 -330.52)"/><path class="cls-1" d="M290.49,352.28c1.49,5.41.75,11.82-3,14.84-2.74,2.19-6.68,2.34-8.06,2.36" transform="translate(-257.75 -330.52)"/><path class="cls-1" d="M291,353c-5.58,1.09-11.14,4.57-12.36,9.2-.88,3.36.6,6.87,1.15,8.08" transform="translate(-257.75 -330.52)"/><path class="cls-1" d="M344.88,382.43c-3.71,4.23-9.47,7.13-14.07,5.63-3.33-1.09-5.62-4.31-6.39-5.44" transform="translate(-257.75 -330.52)"/><path class="cls-1" d="M344.57,383.23c-4-4.06-9.93-6.8-14.47-5.27-3.29,1.1-5.42,4.26-6.12,5.38" transform="translate(-257.75 -330.52)"/><path class="cls-1" d="M311.91,366.16c5.57.76,11.17,4,12.46,8.62.94,3.38-.48,7.07-1,8.33" transform="translate(-257.75 -330.52)"/><path class="cls-1" d="M312.75,366c-1.2,5.55-.18,12,3.6,15,2.73,2.13,6.55,2.15,7.87,2.12" transform="translate(-257.75 -330.52)"/><path class="cls-1" d="M299.32,365.75c1.19,5.5.08,11.85-3.86,14.66-2.85,2-6.8,1.95-8.17,1.89" transform="translate(-257.75 -330.52)"/><path class="cls-1" d="M299.78,366.47c-5.63.78-11.38,3.94-12.86,8.49-1.07,3.31.21,6.9.69,8.13" transform="translate(-257.75 -330.52)"/><path class="cls-1" d="M266.62,382.56c3.93-4,9.83-6.62,14.35-4.88,3.27,1.25,5.39,4.59,6.09,5.76" transform="translate(-257.75 -330.52)"/><path class="cls-1" d="M267,381.78c3.75,4.26,9.56,7.31,14.18,6,3.34-.93,5.63-4,6.39-5.06" transform="translate(-257.75 -330.52)"/></g><g id="Layer_3" data-name="Layer 3"><path d="M298,348.45v-.76c1.76-.21,2-.48,1.6-1.51s-.89-2.4-1.46-4.1h-5.83c-.43,1.21-.84,2.27-1.22,3.37-.59,1.76-.21,2,2,2.24v.76h-6.23v-.76c1.7-.21,2.13-.4,3.07-2.83l5.59-14.17.86-.17c1.7,4.62,3.57,9.72,5.27,14.39.86,2.35,1.1,2.57,3,2.78v.76Zm-2.7-14.39c-.86,2.32-1.78,4.78-2.59,6.91h5.05Z" transform="translate(-257.75 -330.52)"/><path d="M323.41,335.11a8.57,8.57,0,0,0-.84-2c-.51-.92-.92-1.14-2.43-1.14h-2.89c-.78,0-.86.08-.86.87v6.23h3.35c1.94,0,2.07-.32,2.48-2.21H323v5.64h-.84c-.35-1.89-.54-2.32-2.45-2.32h-3.35V345c0,2.35.27,2.46,2.72,2.67v.76h-7.5v-.76c2.19-.16,2.43-.35,2.43-2.67V334.33c0-2.35-.27-2.46-2.43-2.67v-.76h8.56c2.43,0,3.34,0,3.8,0,0,1,.14,2.86.27,4.16Z" transform="translate(-257.75 -330.52)"/></g></svg>